<svg width="248" height="249" viewBox="0 0 248 249" fill="none" xmlns="http://www.w3.org/2000/svg">
<path d="M82.5522 82.7531C105.379 105.587 142.45 105.587 165.276 82.7531C188.102 59.9187 188.102 22.8344 165.276 0L145.367 19.9157L82.5522 82.7531Z" fill="#FFFDE7"/>
<path d="M165.276 248.259C188.102 225.425 188.102 188.341 165.276 165.506C142.45 142.672 105.379 142.672 82.5522 165.506L102.461 185.422L165.276 248.259Z" fill="#FFFDE7"/>
<path d="M124.086 206.368L82.7239 164.991C59.8977 187.826 59.8977 224.91 82.7239 247.744C84.6118 249.633 82.7239 247.744 82.7239 247.744L124.086 206.368Z" fill="#576E51"/>
<path d="M82.8954 0.515198C60.2408 23.3496 60.4124 60.2622 83.067 82.9249L102.976 63.0092L124.257 41.7201L102.461 19.9158L82.8954 0.515198Z" fill="#CBD2A4"/>
<path d="M165.448 0.515198L124.086 41.8917L165.104 82.9249C187.931 60.0905 187.931 23.3496 165.448 0.515198Z" fill="#CBD2A4"/>
<path d="M0 82.5815L41.3619 123.958L82.7238 82.5815C59.8975 59.7471 22.8263 59.7471 0 82.5815Z" fill="#71876E"/>
<path d="M248 82.4097C225.174 59.5753 188.103 59.5753 165.276 82.4097L185.185 102.325L206.638 123.786L228.091 102.325L248 82.4097Z" fill="#71876E"/>
<path d="M165.276 165.163C188.103 187.997 225.174 187.997 248 165.163L206.638 123.786L165.276 165.163Z" fill="#FBC02D"/>
<path d="M0 165.335C22.8263 188.169 59.8975 188.169 82.7238 165.335L62.8152 145.419L41.3619 123.958L19.9086 145.419L0 165.335Z" fill="#FBC02D"/>
<path d="M165.448 247.744C188.274 224.91 188.274 187.826 165.448 164.991L145.539 184.907L124.086 206.368L145.539 227.829L165.448 247.744Z" fill="#576E51"/>
<path d="M164.246 83.955H84.2683V163.961H164.246V83.955Z" fill="#CBD2A4"/>
</svg>
